# AST/ASF file generated using VICON BodyLanguage
# -----------------------------------------------
:version 1.10
:name VICON
:units
  mass 1.0
  length 0.45
  angle deg
:documentation
   .ast/.asf automatically generated from VICON data using
   VICON BodyBuilder and BodyLanguage model FoxedUp or BRILLIANT.MOD
:root
   order TX TY TZ RX RY RZ
   axis XYZ
   position 0 0 0  
   orientation 0 0 0 
:bonedata
  begin
     id 1 
     name lhipjoint
     direction 0.700308 -0.549349 0.455834 
     length 2.59063 
     axis 0 0 0  XYZ
  end
  begin
     id 2 
     name lfemur
     direction 0.34202 -0.939693 0  
     length 6.31066  
     axis 0 0 20  XYZ
    dof rx ry rz
    limits (-160.0 20.0)
           (-70.0 70.0)
           (-60.0 70.0)
  end
  begin
     id 3 
     name ltibia
     direction 0.34202 -0.939693 0   
     length 7.36093   
     axis 0 0 20   XYZ
    dof rx
    limits (-10.0 170.0)
  end
  begin
     id 4 
     name lfoot
     direction 0.0905332 -0.248738 0.96433   
     length 2.0233   
     axis -90 7.62852e-016 20   XYZ
    dof rx rz
    limits (-45.0 90.0)
           (-70.0 20.0)
  end
  begin
     id 5 
     name ltoes
     direction 1.53573e-011 -4.21855e-011 1   
     length 1.01524   
     axis -90 7.62852e-016 20   XYZ
    dof rx
    limits (-90.0 20.0)
  end
  begin
     id 6 
     name rhipjoint
     direction -0.61416 -0.607328 0.503944   
     length 2.34332  
     axis 0 0 0  XYZ 
  end
  begin
     id 7 
     name rfemur
     direction -0.34202 -0.939693 0   
     length 6.58548   
     axis 0 0 -20   XYZ
    dof rx ry rz
    limits (-160.0 20.0)
           (-70.0 70.0)
           (-70.0 60.0)
  end
  begin
     id 8 
     name rtibia
     direction -0.34202 -0.939693 0   
     length 7.20707   
     axis 0 0 -20   XYZ
    dof rx
    limits (-10.0 170.0)
 end
 begin
     id 9 
     name rfoot
     direction -0.136772 -0.375778 0.916561   
     length 1.92184  
     axis -90 -7.62852e-016 -20   XYZ
    dof rx rz
    limits (-45.0 90.0)
           (-20.0 70.0)
  end
  begin
     id 10 
     name rtoes
     direction -1.53535e-011 -4.21828e-011 1   
     length 0.951089   
     axis -90 -7.62852e-016 -20   XYZ
    dof rx
    limits (-90.0 20.0)
  end
  begin
     id 11 
     name lowerback
     direction -0.0444974 0.988086 -0.147332   
     length 1.9609   
     axis 0 0 0   XYZ
    dof rx ry rz
    limits (-20.0 45.0)
           (-30.0 30.0)
           (-30.0 30.0)
  end
  begin
     id 12 
     name upperback
     direction 0.00613146 0.999513 0.0306081   
     length 1.94944   
     axis 0 0 0   XYZ
    dof rx ry rz
    limits (-20.0 45.0)
           (-30.0 30.0)
           (-30.0 30.0)
  end
  begin
     id 13 
     name thorax
     direction 0.0254621 0.994518 0.101418   
     length 2.0119   
     axis 0 0 0   XYZ
    dof rx ry rz
    limits (-20.0 45.0)
           (-30.0 30.0)
           (-30.0 30.0)
  end
  begin
     id 14 
     name lowerneck
     direction 0.0168698 0.977854 0.208608   
     length 1.6375   
     axis 0 0 0   XYZ
    dof rx ry rz
    limits (-20.0 45.0)
           (-30.0 30.0)
           (-30.0 30.0)
  end
  begin
     id 15 
     name upperneck
     direction -0.0283988 0.989338 -0.142843   
     length 1.6851   
     axis 0 0 0   XYZ
    dof rx ry rz
    limits (-20.0 45.0)
           (-30.0 30.0)
           (-30.0 30.0)
  end
  begin
     id 16
     name head
     direction -0.0129422 0.99741 -0.0707489  
     length 1.69029  
     axis 0 0 0   XYZ
    dof rx ry rz
    limits (-20.0 45.0)
           (-30.0 30.0)
           (-30.0 30.0)
  end
  begin
     id 17 
     name lclavicle
     direction 0.820295 0.564628 -0.0911715  
     length 3.16484  
     axis 0 0 0   XYZ
    dof ry rz
    limits (-20.0 10.0)
           (0.0 20.0)
  end
  begin
     id 18 
     name lhumerus
     direction 1 -4.48969e-011 1.00186e-027   
     length 5.17853   
     axis 180 -30 -90   XYZ
    dof rx ry rz
    limits (-60.0 90.0)
           (-90.0 90.0)
           (-90.0 90.0)
  end
  begin
     id 19
     name lradius
     direction 1 -4.48966e-011 -1.52922e-027   
     length 3.40399   
     axis 180 -30 -90   XYZ
    dof rx
    limits (-10.0 170.0)
  end
  begin
     id 20
     name lwrist
     direction 1 -4.48981e-011 -3.80893e-027   
     length 1.70199   
     axis 1.1049e-015 90 90   XYZ
    dof ry
    limits (-180.0 0.0)
 end
  begin
     id 21 
     name lhand
     direction 1 -4.48957e-011 -7.61786e-027   
     length 0.708964   
     axis 4.86085e-015 90 90   XYZ
    dof rx rz
    limits (-90.0 90.0)
           (-45.0 45.0)
  end
  begin
     id 22 
     name lfingers
     direction 1 -4.48929e-011 -1.52357e-026   
     length 0.571585   
     axis 9.7217e-015 90 90   XYZ
    dof rx
    limits (0.0 90.0)
  end
  begin
     id 23
     name lthumb
     direction 0.707107 -6.34905e-011 0.707107   
     length 0.820685   
     axis -90 45 2.85299e-015   XYZ
    dof rx rz
    limits (-45.0 45.0)
           (-45.0 45.0)
  end
  begin
     id 24 
     name rclavicle
     direction -0.858602 0.463947 -0.218075   
     length 3.35137  
     axis 0 0 0   XYZ 
    dof ry rz
    limits (-10.0 20.0)
           (-20.0 0.0)
  end
  begin
     id 25 
     name rhumerus
     direction -1 -4.48969e-011 -1.98511e-027  
     length 5.42351   
     axis 180 30 90   XYZ
    dof rx ry rz
    limits (-90.0 60.0)
           (-90.0 90.0)
           (-90.0 90.0)
  end
  begin
     id 26 
     name rradius
     direction -1 -4.48961e-011 -2.82624e-027   
     length 3.42066   
     axis 180 30 90   XYZ
    dof rx
    limits (-10.0 170.0)
  end
  begin
     id 27 
     name rwrist
     direction -1 -4.48966e-011 -3.80893e-027   
     length 1.71033   
     axis 1.1049e-015 -90 -90   XYZ
    dof ry
    limits (-180.0 0.0)
  end
  begin
     id 28
     name rhand
     direction -1 -4.48964e-011 -7.61786e-027   
     length 0.743608   
     axis 4.86085e-015 -90 -90   XYZ
    dof rx rz
    limits (-90.0 90.0)
           (-45.0 45.0)
  end
  begin
     id 29
     name rfingers
     direction -1 -4.48961e-011 -1.52357e-026   
     length 0.599516   
     axis 9.7217e-015 -90 -90   XYZ
    dof rx
    limits (0.0 90.0)
  end
  begin
     id 30
     name rthumb
     direction -0.707107 -6.34913e-011 0.707107   
     length 0.860789   
     axis -90 -45 -2.85299e-015   XYZ
    dof rx rz
    limits (-45.0 45.0)
           (-45.0 45.0)
  end
:hierarchy
  begin
    root lhipjoint rhipjoint lowerback
    lhipjoint lfemur
    lfemur ltibia
    ltibia lfoot
    lfoot ltoes
    rhipjoint rfemur
    rfemur rtibia
    rtibia rfoot
    rfoot rtoes
    lowerback upperback
    upperback thorax
    thorax lowerneck lclavicle rclavicle
    lowerneck upperneck
    upperneck head
    lclavicle lhumerus
    lhumerus lradius
    lradius lwrist
    lwrist lhand lthumb
    lhand lfingers
    rclavicle rhumerus
    rhumerus rradius
    rradius rwrist
    rwrist rhand rthumb
    rhand rfingers
  end

#!OML:ASF E:\mmandel\Project 1\Capture day 1\Session 2\Subject.ASF
:FULLY-SPECIFIED
:DEGREES
753
root 7.71541 14.7342 -2.26163 667.691 87.835 648.562
lowerback 27.6562 0.790333 -0.135189
upperback 2.21001 1.39804 1.33992
thorax -12.976 0.782666 1.06418
lowerneck -15.9369 -0.246868 1.14883
upperneck 3.17836 -0.30108 -2.32894
head 3.91276 -0.223358 -1.01936
rclavicle -1.08338e-014 -2.06736e-014
rhumerus -6.45579 -3.28169 -81.9738
rradius 67.2504
rwrist -13.1314
rhand -18.1489 38.7245
rfingers 7.12502
rthumb 8.12664 8.90081
lclavicle -1.08338e-014 -2.06736e-014
lhumerus -3.58089 -13.1299 76.3429
lradius 67.1624
lwrist 28.3013
lhand -17.8448 327.668
lfingers 7.12502
lthumb 8.42016 -2.51979
rfemur -55.2107 -12.4317 13.0149
rtibia 61.1813
rfoot -24.7039 -7.50132
rtoes -16.8684
lfemur -57.0148 17.4154 -13.4341
ltibia 62.7215
lfoot -21.1413 -5.54338
ltoes -1.19253
754
root 7.71949 14.7408 -2.28549 669.039 87.759 649.917
lowerback 27.6525 0.717426 -0.143619
upperback 2.53101 1.32077 1.38337
thorax -12.5978 0.755761 1.14699
lowerneck -17.8873 -0.21008 1.2192
upperneck 4.09965 -0.211918 -2.79309
head 4.07312 -0.221226 -1.08027
rclavicle -1.56046e-014 -3.81667e-014
rhumerus -5.80108 -3.04605 -82.0364
rradius 67.2117
rwrist -13.234
rhand -18.0685 38.6649
rfingers 7.12502
rthumb 8.2042 8.84422
lclavicle -1.56046e-014 -3.81667e-014
lhumerus -2.76624 -12.7514 76.0917
lradius 66.7631
lwrist 28.2797
lhand -17.821 327.499
lfingers 7.12502
lthumb 8.44304 -2.68957
rfemur -55.1072 -12.3059 12.9393
rtibia 61.0609
rfoot -24.7087 -7.5195
rtoes -16.6649
lfemur -57.0041 17.4651 -13.4958
ltibia 62.7784
lfoot -21.1897 -5.59637
ltoes -0.801126
755
root 7.71873 14.7396 -2.31203 669.403 87.6804 650.253
lowerback 27.7947 0.701523 -0.0377909
upperback 2.45386 1.32586 1.3449
thorax -12.7603 0.749795 1.03889
lowerneck -18.1449 -0.245489 1.51535
upperneck 4.22199 -0.293125 -3.12103
head 4.14874 -0.278328 -1.23854
rclavicle 1.05356e-014 5.00937e-014
rhumerus -5.98249 -3.04414 -82.1002
rradius 67.1773
rwrist -13.3601
rhand -17.956 38.6027
rfingers 7.12502
rthumb 8.31277 8.78624
lclavicle 1.05356e-014 5.00937e-014
lhumerus -2.67536 -12.7943 75.9532
lradius 66.5336
lwrist 28.2862
lhand -17.7825 327.615
lfingers 7.12502
lthumb 8.48024 -2.57577
rfemur -55.105 -12.2469 12.9016
rtibia 60.987
rfoot -24.6849 -7.55826
rtoes -16.2499
lfemur -57.1418 17.5107 -13.5816
ltibia 62.8878
lfoot -21.2963 -5.43255
ltoes -1.85769
756
root 7.71767 14.7317 -2.33789 671.907 87.6606 652.72
lowerback 27.7741 0.697737 -0.0338125
upperback 2.42061 1.30916 1.27052
thorax -12.7858 0.73825 0.958008
lowerneck -17.9736 -0.143019 1.62638
upperneck 4.093 -0.173484 -3.21933
head 4.08528 -0.221105 -1.27544
rclavicle -2.29596e-014 -3.94588e-014
rhumerus -6.0906 -3.00262 -82.1956
rradius 67.0302
rwrist -13.5072
rhand -17.8069 38.5862
rfingers 7.12502
rthumb 8.45668 8.77549
lclavicle -2.29596e-014 -3.94588e-014
lhumerus -2.68575 -12.7306 75.8244
lradius 66.5397
lwrist 28.2193
lhand -17.687 327.759
lfingers 7.12502
lthumb 8.57238 -2.43506
rfemur -55.1757 -12.2039 12.7503
rtibia 60.9894
rfoot -24.6728 -7.53622
rtoes -16.1536
lfemur -57.2864 17.4994 -13.7355
ltibia 63.0686
lfoot -21.4099 -5.15838
ltoes -2.55901
757
root 7.71695 14.7212 -2.35952 673.54 87.6019 654.304
lowerback 27.7736 0.693422 -0.13276
upperback 2.36463 1.27078 1.2723
thorax -12.8523 0.725251 1.03205
lowerneck -17.7565 0.0495967 1.68685
upperneck 4.01594 0.0794679 -3.33628
head 4.03485 -0.100482 -1.29913
rclavicle 1.11319e-014 2.57426e-014
rhumerus -6.24111 -2.76625 -82.27
rradius 66.927
rwrist -13.5996
rhand -17.8319 38.641
rfingers 7.12502
rthumb 8.43261 8.82939
lclavicle 1.11319e-014 2.57426e-014
lhumerus -2.81326 -12.6154 75.6998
lradius 66.5111
lwrist 28.1927
lhand -17.6334 327.817
lfingers 7.12502
lthumb 8.62415 -2.3795
rfemur -55.2568 -12.0948 12.6314
rtibia 61.0211
rfoot -24.6996 -7.49786
rtoes -16.056
lfemur -57.4216 17.4391 -13.768
ltibia 63.2892
lfoot -21.5289 -5.06309
ltoes -1.84127
